<?xml version="1.0" encoding="UTF-8" standalone="no"?>
<svg width="22px" height="21px" viewBox="0 0 22 21" version="1.1" xmlns="http://www.w3.org/2000/svg" xmlns:xlink="http://www.w3.org/1999/xlink">
    <!-- Generator: Sketch 39.1 (31720) - http://www.bohemiancoding.com/sketch -->
    <title>icon-calendar</title>
    <desc>Created with Sketch.</desc>
    <defs></defs>
    <g id="Page-1" stroke="none" stroke-width="1" fill="none" fill-rule="evenodd">
        <g id="forms" transform="translate(-444.000000, -590.000000)" fill="#999999">
            <g id="Group-8" transform="translate(121.000000, 578.000000)">
                <g id="Group-7" transform="translate(97.000000, 0.000000)">
                    <g id="Group-6" transform="translate(214.000000, 0.000000)">
                        <g id="calendar-1" transform="translate(12.000000, 12.000000)">
                            <g id="Group">
                                <path d="M20,2 L18,2 L18,0 L16,0 L16,5 L14,5 L14,2 L8,2 L8,0 L6,0 L6,5 L4,5 L4,2 L2,2 C0.897,2 0,2.898 0,4 L0,19 C0,20.102 0.897,21 2,21 L20,21 C21.103,21 22,20.102 22,19 L22,4 C22,2.897 21.103,2 20,2 L20,2 Z M7,18 L3,18 L3,14 L7,14 L7,18 L7,18 Z M7,12 L3,12 L3,8 L7,8 L7,12 L7,12 Z M13,18 L9,18 L9,14 L13,14 L13,18 L13,18 Z M13,12 L9,12 L9,8 L13,8 L13,12 L13,12 Z M19,12 L15,12 L15,8 L19,8 L19,12 L19,12 Z" id="icon-calendar"></path>
                            </g>
                        </g>
                    </g>
                </g>
            </g>
        </g>
    </g>
</svg>