<?xml version="1.0" encoding="UTF-8" standalone="no"?>
<svg width="20px" height="20px" viewBox="0 0 20 20" version="1.1" xmlns="http://www.w3.org/2000/svg" xmlns:xlink="http://www.w3.org/1999/xlink">
    <!-- Generator: Sketch 39.1 (31720) - http://www.bohemiancoding.com/sketch -->
    <title>icon-error</title>
    <desc>Created with Sketch.</desc>
    <defs></defs>
    <g id="Page-1" stroke="none" stroke-width="1" fill="none" fill-rule="evenodd">
        <g id="notifications" transform="translate(-117.000000, -70.000000)" fill="#D0011B">
            <g id="notification-negative" transform="translate(100.000000, 50.000000)">
                <g id="icon-error" transform="translate(15.000000, 18.000000)">
                    <path d="M12,2 C6.475,2 2,6.475 2,12 C2,17.525 6.475,22 12,22 C17.525,22 22,17.525 22,12 C22,6.475 17.525,2 12,2 L12,2 Z M13.25,16.9625 L10.75,16.9625 L10.75,14.4625 L13.25,14.4625 L13.25,16.9625 L13.25,16.9625 Z M13.25,13.2125 L10.75,13.2125 L10.75,6.9625 L13.25,6.9625 L13.25,13.2125 L13.25,13.2125 Z" id="Shape"></path>
                </g>
            </g>
        </g>
    </g>
</svg>