<svg xmlns="http://www.w3.org/2000/svg" viewBox="0 0 400 400"><defs><style>.a{isolation:isolate;}.b{fill:#333;}.c{fill:#fff;}.d{fill:#bfbfbf;}.e{fill:gray;}.f{fill:#464646;}.g{fill:#606060;}.h{fill:#ff7bac;}.h,.i{mix-blend-mode:color;}.i{fill:aqua;}</style></defs><title>logo</title><g class="a"><circle class="b" cx="200" cy="200" r="200"/><rect class="c" x="65" y="140" width="120" height="40"/><polygon class="d" points="125 220 65 220 65 180 185 180 125 220"/><rect class="e" x="65" y="220" width="120" height="40"/><rect class="e" x="215" y="140" width="120" height="40"/><polygon class="f" points="215 220 215 260 275 220 215 220"/><polygon class="g" points="335 180 215 180 215 220 275 220 335 180"/><polygon class="h" points="205 280 85 280 85 160 205 160 205 200 145 240 205 240 205 280"/><polygon class="i" points="235 280 235 160 355 160 355 200 235 280"/></g></svg>